<?xml version="1.0" encoding="utf-8"?>
<!-- Generator: Adobe Illustrator 16.0.4, SVG Export Plug-In . SVG Version: 6.00 Build 0)  -->
<!DOCTYPE svg PUBLIC "-//W3C//DTD SVG 1.1//EN" "http://www.w3.org/Graphics/SVG/1.1/DTD/svg11.dtd">
<svg version="1.1" id="Layer_1" xmlns="http://www.w3.org/2000/svg" xmlns:xlink="http://www.w3.org/1999/xlink" x="0px" y="0px"
	 width="11.997px" height="11.995px" viewBox="0 0 11.997 11.995" enable-background="new 0 0 11.997 11.995" xml:space="preserve">
<path fill-rule="evenodd" clip-rule="evenodd" d="M9.688,11.995C9.655,6.65,5.325,2.311,0.005,2.311V0
	c6.593,0,11.958,5.375,11.991,11.995H9.688z M7.918,11.995H5.61C5.595,10.506,5.014,9.11,3.967,8.058
	C2.909,6.993,1.5,6.407,0.002,6.407V4.096C4.349,4.096,7.887,7.634,7.918,11.995z M1.599,8.792c0.883,0,1.6,0.716,1.6,1.601
	c0,0.884-0.717,1.6-1.6,1.6S0,11.276,0,10.392C0,9.507,0.716,8.792,1.599,8.792z"/>
</svg>
